<?xml version="1.0" encoding="UTF-8" standalone="no"?>
<!-- Created with Inkscape (http://www.inkscape.org/) -->

<svg
   xmlns:dc="http://purl.org/dc/elements/1.1/"
   xmlns:cc="http://creativecommons.org/ns#"
   xmlns:rdf="http://www.w3.org/1999/02/22-rdf-syntax-ns#"
   xmlns:svg="http://www.w3.org/2000/svg"
   xmlns="http://www.w3.org/2000/svg"
   xmlns:sodipodi="http://sodipodi.sourceforge.net/DTD/sodipodi-0.dtd"
   xmlns:inkscape="http://www.inkscape.org/namespaces/inkscape"
   width="150mm"
   height="150mm"
   viewBox="0 0 150 150"
   version="1.1"
   id="svg8"
   inkscape:export-filename="C:\Users\21932849\bitmap.svg.png"
   inkscape:export-xdpi="96"
   inkscape:export-ydpi="96"
   sodipodi:docname="logoCollapsr.svg"
   inkscape:version="0.92.4 (5da689c313, 2019-01-14)">
  <defs
     id="defs2" />
  <sodipodi:namedview
     id="base"
     pagecolor="#ffffff"
     bordercolor="#666666"
     borderopacity="1.0"
     inkscape:pageopacity="0.0"
     inkscape:pageshadow="2"
     inkscape:zoom="0.49497475"
     inkscape:cx="-530.97752"
     inkscape:cy="414.26419"
     inkscape:document-units="mm"
     inkscape:current-layer="g3895"
     showgrid="false"
     inkscape:window-width="1440"
     inkscape:window-height="838"
     inkscape:window-x="-8"
     inkscape:window-y="-8"
     inkscape:window-maximized="1" />
  <metadata
     id="metadata5">
    <rdf:RDF>
      <cc:Work
         rdf:about="">
        <dc:format>image/svg+xml</dc:format>
        <dc:type
           rdf:resource="http://purl.org/dc/dcmitype/StillImage" />
        <dc:title></dc:title>
      </cc:Work>
    </rdf:RDF>
  </metadata>
  <g
     inkscape:label="Capa 1"
     inkscape:groupmode="layer"
     id="layer1"
     transform="translate(0,-147)">
    <g
       id="g3960"
       transform="matrix(0.26458333,0,0,0.26458333,6.7279775,155.93928)">
      <path
         id="path3887"
         d="m 426.54061,163.95839 -7.2,240 -90.899,94.401 c -17.701,5.099 -36.601,8.101 -55.801,9 l -12.6,-10.8 -197.1,-172.4 -15,-214.799 c 7.2,-10.501 15.3,-20.402 24,-30 46.501,-51 113.701,-83.4010002 188.1,-83.4010002 24,0 47.401,3.59999997 69.3,9.901 10.201,2.699 20.4,6.0000002 30,10.1990002 z"
         style="fill:#ff9955"
         inkscape:connector-curvature="0" />
      <path
         id="path3889"
         d="m 426.54061,163.95839 -7.2,240 -90.899,94.401 c -17.701,5.099 -36.601,8.101 -55.801,9 l -12.6,-10.8 V -4.0406102 c 24,0 47.401,3.59999997 69.3,9.901 10.201,2.699 20.4,6.0000002 30,10.1990002 z"
         style="fill:#d45500"
         inkscape:connector-curvature="0" />
      <g
         id="g3895"
         style="fill:#87deaa"
         transform="translate(4.0406102,-4.0406102)">
	<path
   id="path3891"
   d="m 226.015,355.972 c -14.253,-8.145 -32.007,-18.296 -32.007,-37.09 v -25.327 c -3.75,-7.222 -49.951,-28.901 -67.339,-37.061 -5.171,-2.432 -10.986,-3.955 -16.655,-5.522 -14.751,-4.087 -33.12,-9.17 -40.181,-27.144 -7.236,-18.413 0.19,-43.359 24.844,-83.394 11.323,-18.384 9.771,-24.346 9.756,-24.404 -3.867,-3.94 -27.129,-2.93 -37.075,-2.49 -8.723,0.379 -16.425,0.524 -23.355,-0.018 C 16.877,154.036 0,202.687 0,255 c 0,140.61 115.39,257 256,257 4.246,0 8.383,-0.43 12.578,-0.637 -15.787,-22.978 -23.915,-71.558 -23.915,-141.841 -0.85,-3.37 -12.862,-10.24 -18.648,-13.55 z"
   style="fill:#80e5ff"
   inkscape:connector-curvature="0" />

	<path
   id="path3893"
   d="m 512,255 c 0,117.001 -80.2,217.4 -187.599,247.4 0.599,-2.401 0.899,-4.799 0.899,-7.2 v -57.201 c 0,-4.499 13.801,-17.098 21.899,-24.598 22.8,-21.301 54.001,-50.7 54.001,-94.501 0,-27.001 -21.901,-31.8 -36.301,-34.801 -14.7,-3.3 -30,-6.599 -42.301,-24.3 -1.8,-2.699 -3.3,-5.099 -4.499,-7.5 -6.301,-10.199 -14.7,-24.3 -33.001,-24.3 -13.198,0 -22.2,4.2 -29.099,8.701 -1.8,1.5 -3.6,2.699 -5.4,3.9 -9,6.599 -17.401,12.599 -41.7,12.599 -24,0 -38.399,-13.801 -43.2,-25.8 -1.8,-4.501 -5.4,-15.901 3.3,-24.6 4.2,-4.2 6.301,-4.2 20.7,2.999 13.2,6.301 35.101,17.401 55.201,-2.999 3.9,-3.9 7.5,-6.899 11.1,-9 16.5,-12.001 31.8,-11.7 50.4,-12.001 h 3.9 c 24.6,0 65.7,0 65.7,-40.201 0,-15 -6.599,-41.699 -13.5,-63.6 -5.4,-17.699 -11.999,-38.099 -11.999,-48.3 0,-5.7 0.899,-8.399 4.799,-9.6 C 446.8,58.801 512,149.7 512,255 Z"
   style="fill:#87cdde"
   inkscape:connector-curvature="0" />

</g>
      <path
         id="path3897"
         d="m 48.73661,81.25739 c 0,0.015 0.015,0.015 0.015,0.029 0,-0.014 -0.015,-0.014 -0.015,-0.029 z"
         inkscape:connector-curvature="0" />
      <path
         id="path3899"
         d="m 516.04061,250.95939 c 0,117.001 -80.2,217.4 -187.599,247.4 0.599,-2.401 0.899,-4.799 0.899,-7.2 v -57.201 c 0,-4.499 13.801,-17.098 21.899,-24.598 22.8,-21.301 54.001,-50.7 54.001,-94.501 0,-27.001 -21.901,-31.8 -36.301,-34.801 -14.7,-3.3 -30,-6.599 -42.301,-24.3 -1.8,-2.699 -3.3,-5.099 -4.499,-7.5 -6.301,-10.199 -14.7,-24.3 -33.001,-24.3 -13.198,0 -22.2,4.2 -29.099,8.701 v -42.9 c 16.5,-12.001 31.8,-11.7 50.4,-12.001 h 3.9 c 24.6,0 65.7,0 65.7,-40.201 0,-15 -6.599,-41.699 -13.5,-63.6 -5.4,-17.699 -11.999,-38.099 -11.999,-48.3 0,-5.7 0.899,-8.399 4.799,-9.6 91.501,38.703 156.701,129.602 156.701,234.902 z"
         style="fill:#5fbcd3"
         inkscape:connector-curvature="0" />
      <g
         id="g3901">
</g>
      <g
         id="g3903">
</g>
      <g
         id="g3905">
</g>
      <g
         id="g3907">
</g>
      <g
         id="g3909">
</g>
      <g
         id="g3911">
</g>
      <g
         id="g3913">
</g>
      <g
         id="g3915">
</g>
      <g
         id="g3917">
</g>
      <g
         id="g3919">
</g>
      <g
         id="g3921">
</g>
      <g
         id="g3923">
</g>
      <g
         id="g3925">
</g>
      <g
         id="g3927">
</g>
      <g
         id="g3929">
</g>
    </g>
  </g>
</svg>
