<?xml version="1.0" encoding="utf-8"?>
<!-- Generator: Adobe Illustrator 24.2.1, SVG Export Plug-In . SVG Version: 6.00 Build 0)  -->
<svg version="1.1"
	 id="svg8" inkscape:export-filename="C:\Users\21932849\bitmap.svg.png" inkscape:export-xdpi="96" inkscape:export-ydpi="96" inkscape:version="0.92.4 (5da689c313, 2019-01-14)" sodipodi:docname="logoCollapsr.svg" xmlns:cc="http://creativecommons.org/ns#" xmlns:dc="http://purl.org/dc/elements/1.1/" xmlns:inkscape="http://www.inkscape.org/namespaces/inkscape" xmlns:rdf="http://www.w3.org/1999/02/22-rdf-syntax-ns#" xmlns:sodipodi="http://sodipodi.sourceforge.net/DTD/sodipodi-0.dtd" xmlns:svg="http://www.w3.org/2000/svg"
	 xmlns="http://www.w3.org/2000/svg" xmlns:xlink="http://www.w3.org/1999/xlink" x="0px" y="0px" viewBox="0 0 425.2 425.2"
	 style="enable-background:new 0 0 425.2 425.2;" xml:space="preserve">
<style type="text/css">
	.st0{fill:#1BE6F4;}
	.st1{fill:#08565C;}
	.st2{fill:#2C2A50;}
	.st3{fill:#17162A;}
</style>
<sodipodi:namedview  bordercolor="#666666" borderopacity="1.0" id="base" inkscape:current-layer="g3895" inkscape:cx="-530.97752" inkscape:cy="414.26419" inkscape:document-units="mm" inkscape:pageopacity="0.0" inkscape:pageshadow="2" inkscape:window-height="838" inkscape:window-maximized="1" inkscape:window-width="1440" inkscape:window-x="-8" inkscape:window-y="-8" inkscape:zoom="0.49497475" pagecolor="#ffffff" showgrid="false">
	</sodipodi:namedview>
<g id="layer1" transform="translate(0,-147)" inkscape:groupmode="layer" inkscape:label="Capa 1">
	<g id="g3960" transform="matrix(0.26458333,0,0,0.26458333,6.7279775,155.93928)">
		<path id="path3887" inkscape:connector-curvature="0" class="st0" d="M1255.7,526.8l-20.4,680.3l-257.7,267.6
			c-50.2,14.5-103.8,23-158.2,25.5l-35.7-30.6L225.1,980.9L182.5,372c20.4-29.8,43.4-57.8,68-85C382.4,142.4,572.9,50.5,783.8,50.5
			c68,0,134.4,10.2,196.4,28.1c28.9,7.7,57.8,17,85,28.9L1255.7,526.8z"/>
		<path id="path3889" inkscape:connector-curvature="0" class="st1" d="M1255.7,526.8l-20.4,680.3l-257.7,267.6
			c-50.2,14.5-103.8,23-158.2,25.5l-35.7-30.6V50.5c68,0,134.4,10.2,196.4,28.1c28.9,7.7,57.8,17,85,28.9L1255.7,526.8z"/>
		<g id="g3895" transform="translate(4.0406102,-4.0406102)">
			<path id="path3891" inkscape:connector-curvature="0" class="st2" d="M694.7,1063.6c-40.4-23.1-90.7-51.9-90.7-105.1v-71.8
				c-10.6-20.5-141.6-81.9-190.9-105.1c-14.7-6.9-31.1-11.2-47.2-15.7C324.1,754.4,272,740,252,689c-20.5-52.2,0.5-122.9,70.4-236.4
				c32.1-52.1,27.7-69,27.7-69.2c-11-11.2-76.9-8.3-105.1-7.1c-24.7,1.1-46.6,1.5-66.2-0.1c-76.9,114.8-124.7,252.8-124.7,401
				c0,398.6,327.1,728.5,725.7,728.5c12,0,23.8-1.2,35.7-1.8c-44.8-65.1-67.8-202.8-67.8-402.1
				C745.2,1092.5,711.1,1073,694.7,1063.6L694.7,1063.6z"/>
			<path id="path3893" inkscape:connector-curvature="0" class="st2" d="M1505.4,777.4c0,331.7-227.3,616.3-531.8,701.3
				c1.7-6.8,2.5-13.6,2.5-20.4v-162.1c0-12.8,39.1-48.5,62.1-69.7c64.6-60.4,153.1-143.7,153.1-267.9c0-76.5-62.1-90.1-102.9-98.6
				c-41.7-9.4-85-18.7-119.9-68.9c-5.1-7.7-9.4-14.5-12.8-21.3c-17.9-28.9-41.7-68.9-93.5-68.9c-37.4,0-62.9,11.9-82.5,24.7
				c-5.1,4.3-10.2,7.7-15.3,11.1c-25.5,18.7-49.3,35.7-118.2,35.7c-68,0-108.8-39.1-122.5-73.1c-5.1-12.8-15.3-45.1,9.4-69.7
				c11.9-11.9,17.9-11.9,58.7,8.5c37.4,17.9,99.5,49.3,156.5-8.5c11.1-11.1,21.3-19.6,31.5-25.5c46.8-34,90.1-33.2,142.9-34h11.1
				c69.7,0,186.2,0,186.2-114c0-42.5-18.7-118.2-38.3-180.3c-15.3-50.2-34-108-34-136.9c0-16.2,2.5-23.8,13.6-27.2
				C1320.6,221.3,1505.4,478.9,1505.4,777.4z"/>
		</g>
		<path id="path3897" inkscape:connector-curvature="0" d="M184.8,292.3C184.8,292.4,184.8,292.4,184.8,292.3
			C184.8,292.4,184.8,292.4,184.8,292.3z"/>
		<path id="path3899" inkscape:connector-curvature="0" class="st3" d="M1509.4,773.4c0,331.7-227.3,616.3-531.8,701.3
			c1.7-6.8,2.5-13.6,2.5-20.4v-162.1c0-12.8,39.1-48.5,62.1-69.7c64.6-60.4,153.1-143.7,153.1-267.9c0-76.5-62.1-90.1-102.9-98.6
			c-41.7-9.4-85-18.7-119.9-68.9c-5.1-7.7-9.4-14.5-12.8-21.3c-17.9-28.9-41.7-68.9-93.5-68.9c-37.4,0-62.9,11.9-82.5,24.7V599.9
			c46.8-34,90.1-33.2,142.9-34h11.1c69.7,0,186.2,0,186.2-114c0-42.5-18.7-118.2-38.3-180.3c-15.3-50.2-34-108-34-136.9
			c0-16.2,2.5-23.8,13.6-27.2C1324.6,217.2,1509.4,474.9,1509.4,773.4L1509.4,773.4z"/>
		<g id="g3901">
		</g>
		<g id="g3903">
		</g>
		<g id="g3905">
		</g>
		<g id="g3907">
		</g>
		<g id="g3909">
		</g>
		<g id="g3911">
		</g>
		<g id="g3913">
		</g>
		<g id="g3915">
		</g>
		<g id="g3917">
		</g>
		<g id="g3919">
		</g>
		<g id="g3921">
		</g>
		<g id="g3923">
		</g>
		<g id="g3925">
		</g>
		<g id="g3927">
		</g>
		<g id="g3929">
		</g>
	</g>
</g>
</svg>
